<?xml version="1.0" encoding="UTF-8"?>
<!DOCTYPE svg PUBLIC "-//W3C//DTD SVG 1.1//EN" "http://www.w3.org/Graphics/SVG/1.1/DTD/svg11.dtd">
<svg xmlns="http://www.w3.org/2000/svg" version="1.1" width="64px" height="64px" style="shape-rendering:geometricPrecision; text-rendering:geometricPrecision; image-rendering:optimizeQuality; fill-rule:evenodd; clip-rule:evenodd" xmlns:xlink="http://www.w3.org/1999/xlink">
<g><path style="opacity:0.962" fill="#38595e" d="M 7.5,9.5 C 23.5035,9.33341 39.5035,9.50007 55.5,10C 56.7014,10.9025 57.5348,12.0692 58,13.5C 58.6667,25.8333 58.6667,38.1667 58,50.5C 57.1667,51.3333 56.3333,52.1667 55.5,53C 39.5,53.6667 23.5,53.6667 7.5,53C 6.29857,52.0975 5.46524,50.9308 5,49.5C 4.33333,37.5 4.33333,25.5 5,13.5C 5.66218,12.0161 6.49551,10.6828 7.5,9.5 Z M 28.5,18.5 C 37.7592,18.1169 43.0925,22.4502 44.5,31.5C 43.7442,36.3385 41.0776,37.6718 36.5,35.5C 29.648,38.9964 26.148,36.9964 26,29.5C 28.573,25.191 31.9063,24.5244 36,27.5C 37.2022,29.6775 37.7022,32.0108 37.5,34.5C 39.1667,34.5 40.8333,34.5 42.5,34.5C 42.6928,24.1916 37.6928,19.6916 27.5,21C 19.0774,26.8734 18.4107,33.54 25.5,41C 27.8947,41.6813 30.228,42.5147 32.5,43.5C 22.6973,43.5227 18.1973,38.5227 19,28.5C 20.3499,23.3193 23.5166,19.9859 28.5,18.5 Z"/></g>
<g><path style="opacity:0.8" fill="#38595e" d="M 29.5,27.5 C 35.4877,27.664 36.821,30.164 33.5,35C 27.4034,35.1475 26.0701,32.6475 29.5,27.5 Z"/></g>
</svg>
